<svg width="335" height="85" viewBox="0 0 335 85" fill="none" xmlns="http://www.w3.org/2000/svg">
<g clip-path="url(#clip0_392_989)">
<path d="M272.951 77.4648L273.02 77.4959C275.002 78.3769 278.99 77 280.299 78.625C280.25 78.8618 280.255 79.1701 280.046 79.3054C279.548 79.6279 278.692 79.5601 278.104 79.5837L271.984 79.625C271.707 79.2803 271.433 78.9609 271.273 78.5422L272.371 78.375C272.475 77.952 272.63 77.7539 272.951 77.4648Z" fill="#5D4FFF"/>
<path d="M208.948 66.124C209.409 66.0371 209.906 66.0509 210.375 66.033C210.489 66.2015 210.592 66.4053 210.625 66.6085C210.756 67.4201 210.589 68.5643 210.583 69.4116L210.541 75.9042C210.537 76.5457 210.731 78.1061 210.542 78.6251C210.461 78.8466 210.154 79.1722 210.01 79.3761L209.824 79.6422L209.375 79.7053C208.467 78.5914 209.042 68.3544 208.948 66.124Z" fill="#5D4FFF" fill-opacity="0.976471"/>
<path d="M304.076 66.1242L305.499 65.9585L305.822 66.3749C305.788 68.3275 305.961 78.8851 305.403 79.5689C305.331 79.6563 304.474 79.7029 304.303 79.722C303.962 78.9137 304.173 77.7892 304.144 76.9232L304.076 66.1242Z" fill="#5D4FFF" fill-opacity="0.976471"/>
<path d="M271.273 78.5422C271.819 77.599 271.614 76.4417 271.594 75.3655L271.515 68.6476C271.511 67.7031 271.304 66.7741 271.875 66.0034L273 66.018C273.174 66.1722 273.392 66.2885 273.424 66.5231C273.746 68.8841 273.505 71.539 273.499 73.9332C273.496 75.0795 273.675 76.5097 272.951 77.4648C272.63 77.7539 272.475 77.952 272.371 78.375L271.273 78.5422Z" fill="#5D4FFF" fill-opacity="0.984314"/>
<path d="M282.999 66.1246C283.487 65.9952 283.999 65.9665 284.5 65.916L284.875 66.2694C285.028 68.9506 284.846 71.6826 284.842 74.37C284.84 75.8087 285.21 78.1235 284.454 79.3755L284.25 79.7689L283.375 79.6643C283.278 79.5272 283.047 79.2732 282.995 79.125C282.797 78.5568 282.977 77.1056 282.973 76.463L282.999 66.1246Z" fill="#5D4FFF" fill-opacity="0.984314"/>
<path d="M217.943 66.1241C218.221 66.0602 218.525 65.9842 218.811 65.9964C219.474 66.0247 219.56 66.1579 219.996 66.6251C220.123 68.8031 220.042 71.0217 220.034 73.2041C220.029 74.4683 220.167 75.8829 219.98 77.1251C219.879 77.7959 219.544 78.5069 218.978 78.9049C217.407 80.0093 215.583 79.8451 213.803 79.5251C213.229 78.9778 213.057 78.3938 213.016 77.6251L213.361 77.3751C213.931 77.5789 214.529 77.7937 215.126 77.8971C216.001 78.0488 217.006 78.0286 217.751 77.5028C218.444 76.3603 218.227 75.1405 218.204 73.827L217.943 66.1241Z" fill="#5D4FFF"/>
<path d="M168.275 66.1241C168.805 66.0123 169.336 66.0529 169.874 66.0753C170.015 66.271 170.287 66.5556 170.374 66.7694C170.458 66.978 170.281 68.0709 170.285 68.3704C170.325 71.5537 170.559 74.5995 170.171 77.7809C171.873 77.7811 176.04 77.3495 177.198 78.4999L176.779 79.1255L176.539 79.4047C173.959 79.761 171.333 79.5364 168.732 79.709C168.429 79.3433 168.52 77.6083 168.507 77.085C168.421 73.6482 169.041 69.4305 168.275 66.1241Z" fill="#5D4FFF"/>
<path d="M140.269 66.1247C142.631 65.8412 145.166 65.9749 147.549 65.9951C148.84 66.006 150.257 65.8822 151.468 66.375L151.652 66.9593L151.17 67.6544C149.767 68.0413 148.388 67.9805 146.95 67.9479L146.965 73.3432C146.959 73.997 147.057 74.8744 146.732 75.4539L146.468 75.8733L146.925 76.75C146.902 77.6004 147.032 78.8583 146.592 79.6011C145.897 79.7596 145.77 79.8022 145.125 79.5049C144.759 78.4171 144.896 77.0313 144.839 75.8808C144.71 73.2646 144.316 70.3683 144.668 67.7767C143.458 67.515 141.961 68.2175 140.742 67.7314C140.221 67.5235 140.174 67.2296 139.965 66.75L140.269 66.1247Z" fill="#5D4FFF"/>
<path d="M240.91 66.1248C242.36 65.8892 245.209 65.7552 246.455 66.6022C246.957 66.9441 246.919 67.1875 247.02 67.7499L246.625 68.2769L244.403 67.7356C243.305 67.5654 241.944 67.7296 241.04 68.4227C240.51 68.8285 240.443 69.2054 240.375 69.8181C241.028 71.3972 244.928 72.0123 246.346 73.068C247.078 73.6132 247.435 74.6461 247.564 75.5192C247.709 76.4994 247.48 77.7226 246.872 78.5254C246.168 79.4559 244.87 79.5384 243.803 79.6811C242.325 79.8763 240.524 79.766 239.178 79.0861C238.679 78.3555 238.511 78.2457 238.587 77.3749C239.355 77.1389 239.848 77.5047 240.597 77.7078C241.638 77.9898 242.978 78.2041 244.032 77.8976C244.755 77.6873 245.427 77.3004 245.798 76.6249C246.052 72.9788 240.68 74.0181 239.245 71.8749C238.604 70.9172 238.306 69.8998 238.554 68.7548C238.835 67.4535 239.867 66.7804 240.91 66.1248Z" fill="#5D4FFF"/>
<path d="M257.919 66.1244C258.522 65.9706 259.027 65.7966 259.625 66.0522C260.228 67.0102 259.713 71.2361 259.683 72.5974C261.52 70.7249 263.211 68.1966 265.332 66.664C266.191 66.0433 266.929 65.8685 267.964 66.0419C267.962 66.1806 268.001 66.5092 267.956 66.625C267.838 66.9316 266.95 67.66 266.69 67.9269L262.447 72.2807C263.594 73.3819 265.528 75.1338 266.117 76.6266C266.978 77.2752 268.061 78.2844 268.625 79.2051L268.491 79.7225C268.39 79.7572 268.287 79.7808 268.182 79.7998C265.977 80.2012 263.219 75.2915 261.573 74.1367C261.288 73.9374 261.019 74.066 260.689 74.125C259.515 75.491 259.727 77.6356 259.663 79.375C259.123 79.7809 259.05 79.7735 258.375 79.7226C257.121 78.1484 258.023 68.6909 257.919 66.1244Z" fill="#5D4FFF"/>
<path d="M318.562 65.8749C318.988 65.8468 319.238 65.9313 319.615 66.125L319.627 66.625L313.926 72.3648C316.194 74.3627 318.097 76.8722 320.122 79.125L320.002 79.75C317.031 80.9268 314.822 74.3349 312.374 73.8605L311.308 74.9773C311.507 76.1198 311.174 77.814 311.094 79C310.676 79.6309 310.61 79.6422 309.874 79.823L309.506 79.375C309.144 76.0601 309.346 72.6773 309.286 69.3457C309.275 68.741 309.029 67.0053 309.221 66.5C309.278 66.3526 309.522 66.1006 309.624 65.9658L310.749 66.0649C311.666 67.4516 311.148 70.8288 311.102 72.5648C312.758 70.6829 316.119 66.3163 318.562 65.8749Z" fill="#5D4FFF"/>
<path d="M198.052 66.1248L198.787 66.022C200.3 65.8507 203.483 65.7 204.689 66.6704C204.985 66.9085 204.934 67.3794 204.973 67.7501C204.908 67.8155 204.695 68.0775 204.626 68.0993C204.214 68.2302 202.607 67.7413 202.139 67.6747C200.601 67.4558 199.068 67.7847 197.667 68.4093C197.045 69.047 196.689 69.5954 196.437 70.4565C195.897 72.3015 195.946 74.7127 196.915 76.4261C197.349 77.1933 198.45 77.6845 199.28 77.9093C200.233 78.1671 202.388 78.2119 203.232 77.7289C203.844 76.8304 203.626 75.2028 203.643 74.1214L200.697 73.625C200.609 73.0767 200.702 72.906 200.898 72.403C202.205 71.8103 203.884 72.0333 205.294 72.0757L205.325 72.1249C205.609 72.5941 205.559 77.7342 205.374 78.4051C205.253 78.842 205.092 79.0227 204.695 79.2404C203.173 80.0757 199.379 79.9123 197.794 79.4195C196.685 79.0745 195.677 78.3859 195.139 77.3271C194.048 75.1806 193.88 71.6227 194.617 69.3861C195.183 67.6676 196.522 66.8934 198.052 66.1248Z" fill="#5D4FFF"/>
<path d="M288.367 66.1245C288.811 66.0393 289.247 65.9503 289.699 66.0158C291.598 66.2906 294.245 71.17 295.384 72.7659L298.287 76.6759L298.26 69.5964C298.238 69.0328 297.912 67.0212 298.073 66.6249C298.148 66.4395 298.379 66.1962 298.5 66.0261C299.3 66.0614 299.375 66.065 299.945 66.6249L300.123 79.1146L299.327 79.6587L298.625 79.758C296.921 78.9156 295.323 75.7717 294.256 74.2499L290.032 68.5697L290.044 68.7964C290.098 69.7215 290.379 70.635 290.442 71.5705C290.559 73.2943 290.438 75.0644 290.431 76.7936C290.428 77.4801 290.555 78.7367 290.204 79.3118L290.07 79.52C289.933 79.707 289.369 79.7292 289.125 79.7705C287.801 78.4156 288.814 68.7734 288.367 66.1245Z" fill="#5D4FFF"/>
<path d="M334.672 79.5036C334.437 79.7264 334.181 79.7456 333.874 79.8228C332.426 79.0463 332.072 77.5442 331.503 76.0755C330.806 75.5804 326.909 75.9915 325.874 76.0309C325.254 76.6534 325.148 77.3968 324.757 78.1489C324.355 78.92 323.903 79.6676 323.012 79.9284C322.679 80.0257 322.588 79.906 322.294 79.75L322.279 79.3424C322.315 78.3425 323.198 76.8088 323.572 75.8507C324.293 74.0074 326.284 67.4826 327.649 66.261C328.1 65.8566 328.437 65.9643 328.999 65.9964C330.697 67.0254 331.725 71.5285 332.473 73.4436L334.703 78.7756L334.672 79.5036Z" fill="#5D4FFF"/>
<path d="M126.136 65.8725C126.449 65.8263 126.782 65.7999 127.095 65.8615C129.337 66.3037 131.194 70.1582 132.407 71.8992L135.881 76.7924L135.93 69.2853C135.959 68.3194 135.839 66.9957 136.264 66.125C137.035 65.9369 137.253 65.7976 137.973 66.125L137.912 79.4586L137.09 79.9044L136.637 79.8179C136.183 79.7121 135.817 79.5687 135.477 79.2413C134.018 77.8348 132.735 75.5048 131.579 73.8098C130.409 72.0944 129.134 70.537 128.036 68.751L128.004 75.8129C127.994 76.9143 128.123 78.2729 127.795 79.3275C127.707 79.6083 127.239 79.7594 126.975 79.8971L126.345 79.625C125.898 78.0372 125.95 76.2415 125.915 74.6026C125.856 71.7712 125.756 68.6751 126.136 65.8725Z" fill="#5D4FFF"/>
<path d="M96.4727 65.9769C98.8645 65.9909 101.464 65.8163 103.797 66.3794C105.007 66.6716 106.071 67.4127 106.719 68.4792C107.709 70.1085 107.827 73.5231 107.366 75.3376C107.07 76.501 106.646 77.4984 105.583 78.1271L105.537 78.211L105.507 78.2568C105.417 78.4013 105.328 78.5347 105.202 78.6506C103.556 80.1624 99.0239 79.6031 96.9456 79.4981L96.8523 69.9182C96.8284 68.6246 97.198 67.214 96.5142 66.0466L96.4727 65.9769ZM98.505 67.5858L98.5362 67.6542C99.0073 68.7051 98.872 69.9779 98.8714 71.1082C98.8701 73.4227 98.888 75.7478 98.6935 78.0556C100.557 78.0038 102.325 78.0946 104.008 77.1535L104.174 76.8742C105.217 76.0556 105.53 75.233 105.689 73.9177C105.85 72.5971 105.605 70.1248 104.745 69.0732C103.622 67.7 100.821 67.7709 99.1764 67.6389L98.505 67.5858Z" fill="#5D4FFF"/>
<path d="M156.206 66.1245C158.297 65.8741 161.244 65.6743 163.059 66.8932C163.95 67.4916 164.787 68.5335 164.986 69.6035C165.465 72.1755 165.603 75.5155 164.064 77.7358C163.266 78.8868 162.39 79.2456 161.049 79.4916C160.243 79.9866 158.61 79.8208 157.706 79.6926C156.199 79.479 154.962 79.135 154.011 77.861C152.114 75.3209 152.703 71.7067 153.118 68.7822C154.087 67.4142 154.841 67.0324 156.206 66.1245ZM157.156 67.8743C156.027 68.4812 155.331 68.8304 154.93 70.1454C154.427 71.7936 154.458 74.8429 155.264 76.3782C155.643 77.1013 156.662 77.6687 157.424 77.8888C158.215 78.1174 159.779 78.1317 160.564 77.8753C161.503 77.5502 162.304 77.147 162.755 76.1933C163.578 74.4517 163.781 71.9613 163.096 70.1488C162.721 69.1556 162.208 68.4839 161.224 68.0454C159.953 67.4787 158.487 67.6148 157.156 67.8743Z" fill="#5D4FFF"/>
<path d="M182.371 66.1247C184.648 65.8462 187.546 65.6532 189.517 67.0223C190.783 67.9018 191.103 69.2724 191.365 70.6997C191.693 72.4839 191.687 75.8215 190.596 77.3732C189.575 78.8238 188.736 79.2045 187.05 79.5084L187.02 79.5335C186.44 79.9731 184.446 79.7542 183.751 79.6557C182.687 79.5049 181.143 79.1873 180.458 78.2615C178.776 75.9856 178.549 73.3306 178.95 70.5995C179.299 68.2264 180.611 67.432 182.371 66.1247ZM183.58 67.8744C182.529 68.1433 181.969 68.6 181.405 69.5263C180.606 70.8371 180.722 73.9823 181.095 75.417C181.355 76.4161 182.114 77.158 182.99 77.6659C183.781 78.1246 185.403 78.0781 186.295 77.9589C187.219 77.7637 188.219 77.5001 188.763 76.6515C189.85 74.9552 189.832 72.4565 189.399 70.561C189.223 69.7923 188.94 68.9773 188.241 68.5414C186.598 67.5165 185.464 67.5881 183.58 67.8744Z" fill="#5D4FFF"/>
<path d="M114.058 66.124L114.191 66.1013C116.176 65.781 119.173 65.7743 120.828 66.9927C121.841 67.7387 122.803 69.3053 122.978 70.573C123.354 73.2962 123.229 75.8629 121.517 78.0872C120.733 79.1047 119.525 79.4623 118.308 79.6206C117.338 80.108 114.95 79.7111 113.935 79.4288C112.79 79.1104 111.831 78.4233 111.253 77.375C110.145 75.3642 110.041 71.8214 110.675 69.625C111.205 67.7855 112.463 66.9986 114.058 66.124ZM114.831 67.8733C113.787 68.3052 113.232 68.6815 112.781 69.7778C112.028 71.6052 112.082 74.369 112.864 76.1921C113.234 77.0539 113.846 77.3886 114.683 77.7144C115.625 78.0815 117.055 78.1463 118.05 77.9602C118.917 77.7359 119.745 77.343 120.221 76.5484C121.289 74.7621 121.383 72.564 120.881 70.5983C120.679 69.8079 120.171 68.6901 119.453 68.2579C118.158 67.4782 116.255 67.5661 114.831 67.8733Z" fill="#5D4FFF"/>
<path d="M85.0001 66.0443C87.0964 65.8635 89.8627 65.7079 91.6162 67.0382C92.6791 67.8445 93.45 69.3299 93.6247 70.649C93.8846 72.6108 93.9274 75.8913 92.6459 77.5431C91.6191 78.8667 90.7066 79.3741 89.0567 79.5802C88.0696 80.0822 85.443 79.7082 84.4086 79.3688C83.2909 79.0021 82.6092 78.4945 82.0819 77.441C81.0415 75.3627 80.3974 72.3423 81.1835 70.0631C81.9296 67.8999 82.9895 67.0423 85.0001 66.0443ZM87.1465 67.6199C85.8684 67.8084 84.7298 67.9875 83.9234 69.0614C82.8348 70.5113 82.7781 73.0773 83.0494 74.8272C83.1959 75.7713 83.9618 76.9329 84.7472 77.4777C85.3855 77.9206 86.1849 77.9875 86.9376 78.0437C88.1848 78.0541 89.6012 78.0271 90.5604 77.0981C91.6015 76.0897 91.8368 74.2349 91.8338 72.855C91.8317 71.867 91.5538 69.5379 90.8561 68.8161C89.9126 67.8402 88.4354 67.5957 87.1465 67.6199Z" fill="#5D4FFF"/>
<path d="M226.951 66.1249C229.747 65.723 232.068 65.8059 234.379 67.5301C235.084 68.0567 235.685 70.1458 235.812 71.0433C236.148 73.4054 236 75.9082 234.511 77.8732C233.682 78.9676 232.6 79.3486 231.302 79.5281C231.259 79.5607 231.217 79.5883 231.169 79.6123C230.198 80.0966 227.597 79.6781 226.574 79.3613C225.246 78.9504 224.642 78.3262 224.004 77.1307C222.861 74.9917 222.7 72.0945 223.415 69.7978C224.034 67.809 225.178 67.0514 226.951 66.1249ZM229.179 67.625C228.139 67.8037 226.709 68.0145 226.064 68.9276C225.046 70.3665 224.806 72.6542 225.11 74.3446C225.303 75.4173 225.65 76.6216 226.593 77.2723C227.216 77.7027 228.431 78.0984 229.186 77.993C230.442 78.0461 231.717 77.9534 232.696 77.055C233.671 76.1602 233.792 74.2256 233.822 72.9859C233.853 71.6482 233.696 69.798 232.854 68.687C231.587 67.9774 230.653 67.6722 229.179 67.625Z" fill="#5D4FFF"/>
<path d="M296.134 23.6248C296.702 23.5898 297.306 23.6671 297.875 23.7033L298.313 24.2499C298.466 26.0746 298.959 29.5493 298.016 31.0523C296.531 31.6066 294.708 31.5155 293.128 31.6449C291.749 31.7579 290.382 32.0637 288.998 32.2096L289.02 60.0417C286.7 60.4816 284.055 60.2652 281.687 60.2659C281.026 60.2927 280.889 60.3089 280.346 59.9259C279.848 57.527 280.061 54.7861 280.061 52.3353L280.078 39.5918L280.086 32.2499C280.082 30.7674 279.945 29.2088 280.237 27.7499C282.091 25.3397 292.916 24.1063 296.134 23.6248Z" fill="#5D4FFF"/>
<path d="M215.159 13.6246C217.901 13.2097 221.191 13.502 224.002 13.4551L224 24.2158C226.504 24.2651 230.244 23.522 232.574 24.2484L232.529 31.865L223.93 31.6382C224.35 36.0646 223.995 40.8333 224.004 45.2966C224.01 47.7066 223.726 50.402 224.762 52.6433C227.08 53.7088 230.109 53.054 232.509 52.5301C232.533 53.8112 232.907 56.6272 232.319 57.7053L232.06 58.127L232.243 58.5011C232.505 59.1678 232.466 59.2984 232.191 59.9389C230.716 60.6059 228.863 60.6323 227.263 60.6416C223.744 60.6622 220.447 60.0321 217.874 57.4459C214.261 53.8151 214.954 46.9285 214.965 42.2325L215.011 31.7171C213.004 31.9313 210.994 31.8001 208.982 31.7383C209.031 30.4594 209.222 29.1567 209.223 27.8848C209.223 26.8337 208.958 25.1958 209.278 24.2221C211.096 24.2201 213.243 23.8745 215.007 24.1466L215.063 24.1558C214.887 20.8948 214.573 16.8232 215.159 13.6246Z" fill="#5D4FFF"/>
<path d="M182.605 23.8749C188.151 23.4908 193.273 23.657 197.868 27.14C200.898 29.4362 201.882 32.6156 202.369 36.2202C202.614 38.0335 202.496 39.9523 202.498 41.7848L202.52 51.718L202.591 57.6055C202.583 58.1072 202.684 59.0666 202.526 59.5001C202.475 59.6389 202.222 59.8982 202.125 60.0254C199.725 60.7738 196.314 60.3256 193.783 60.2946L193.59 43.4631C193.594 41.132 193.844 38.5307 193.529 36.2428C193.404 35.3337 192.988 34.3092 192.456 33.559C191.492 32.1995 189.832 31.9833 188.302 31.7177C187.534 31.4295 186.457 31.4848 185.638 31.4798C183.248 31.4651 180.901 31.7196 178.53 31.992L178.754 58.6176C178.75 58.8811 178.711 59.6312 178.519 59.8093C177.388 60.8597 171.721 60.2985 169.989 60.2621C169.684 57.1067 169.773 53.8858 169.766 50.7184L169.756 36.4086C169.756 34.5055 169.203 28.774 170.383 27.3685C171.908 25.5502 180.124 24.1256 182.605 23.8749Z" fill="#5D4FFF"/>
<path d="M334.725 51.508C334.253 53.9471 332.428 56.2106 330.577 57.7703C326.703 61.0347 320.39 60.8972 315.625 60.468C312.381 60.1758 308.808 58.7866 306.688 56.2201C304.571 53.6586 303.605 50.2607 303.94 46.9724C304.166 44.7487 305.704 41.9586 307.455 40.5388C312.573 36.3884 320.132 36.8815 326.281 37.5091C325.956 35.8487 325.469 34.1271 324.328 32.846C321.784 29.9896 314.729 30.9133 311.348 31.6476C310.227 31.8912 308.998 32.5518 307.875 32.4897L307.552 32C307.684 30.107 307.285 27.6389 307.924 25.875C309.356 24.3371 312.493 24.0944 314.567 23.9357C319.873 23.5296 326.044 23.3759 330.337 27.0813C332.694 29.1163 334.412 32.0803 334.648 35.226L334.849 35.6624C335.323 36.8034 335.278 50.2622 334.786 51.3799L334.725 51.508ZM320.04 42.875C318.041 43.0001 315.207 43.1384 313.771 44.7551C313.094 45.5174 312.744 46.6077 312.818 47.6191C312.906 48.8159 313.407 50.8529 314.392 51.6674C315.418 52.5166 317.215 52.7499 318.492 52.9389C320.556 52.9033 323.038 53.1072 324.615 51.5058C326.351 49.7439 326.071 46.5341 326.02 44.238L325.973 43.1252C324.022 43.0777 321.978 42.7499 320.04 42.875Z" fill="#5D4FFF"/>
<path d="M141.065 23.8746L145.647 23.7146C150.22 23.8027 153.596 25.0635 156.765 28.3624C161.215 32.9944 161.155 39.6668 161.035 45.6412L137.073 45.4894C137.681 47.3489 137.951 49.4007 139.245 50.958C140.374 52.3169 143.014 52.9138 144.697 53.0733C147.462 53.3353 150.4 53.0454 153.104 52.4405C153.917 52.2588 154.88 52.1037 155.537 51.56C156.841 51.4415 157.882 50.8114 159.012 50.1961L158.995 57.6705C156.565 58.7349 154.165 59.7004 151.542 60.1904C146.544 61.1242 139.281 61.112 134.966 58.105C131.642 55.7878 129.587 52.0736 128.909 48.1107C128.622 46.431 128.651 44.534 128.64 42.8302C128.606 37.7544 129.103 33.3715 132.114 29.0955C134.314 25.9717 137.395 24.5122 141.065 23.8746ZM143.691 30.8748C142.025 31.1655 140.404 31.6361 139.378 33.0993C137.942 35.1459 137.86 37.2269 137.116 39.5094L145.187 39.4657L152.18 39.3589C151.258 36.7947 150.32 32.8506 147.627 31.5716C146.429 31.0028 145.019 30.6739 143.691 30.8748Z" fill="#5D4FFF"/>
<path d="M252.088 23.8747L257.543 23.7568C260.94 23.9119 264.874 25.4144 267.192 27.9843C271.681 32.9603 271.939 39.2804 271.593 45.627L247.876 45.4353C248.187 46.7799 248.426 48.3782 249.006 49.6249C249.591 50.8833 250.79 51.7852 252.076 52.2502C256.341 53.7918 262.702 53.3833 266.786 51.4504C267.851 51.2527 268.846 50.7273 269.827 50.2837L269.754 57.6853C266.992 58.7567 264.544 59.7147 261.61 60.2438C256.352 61.1917 249.674 60.9835 245.176 57.8302C242.16 55.7157 240.294 51.9953 239.671 48.4427C238.617 42.4309 238.948 34.4402 242.556 29.3224C245.031 25.812 248.014 24.5688 252.088 23.8747ZM254.828 30.8749C253.147 31.008 251.476 31.4211 250.334 32.7568C248.655 34.7223 248.521 37.1114 247.892 39.5068L255.686 39.4612L262.953 39.3863C261.735 36.5449 260.847 32.5075 257.652 31.2468C256.87 30.9381 255.676 30.8401 254.828 30.8749Z" fill="#5D4FFF"/>
<path d="M81.4927 12.0737C89.8088 12.6274 98.9894 11.0217 107.049 13.47C111.229 14.7398 115.338 17.7045 117.419 21.6069C120.017 26.4794 120.575 30.9162 120.579 36.3763C120.582 39.9305 120.325 43.2755 119.275 46.6817C118.516 49.1446 116.2 53.6375 113.861 54.8734C113.844 54.962 113.818 55.0469 113.759 55.1171C113.19 55.7939 112.129 56.4015 111.389 56.8879C105.792 60.5649 99.1702 60.1722 92.7818 60.2045L80.9579 60.3212C80.9794 54.7209 80.1708 14.0102 81.2425 12.406C81.3206 12.2891 81.3988 12.1785 81.4927 12.0737ZM89.2586 20.0044C89.538 20.425 89.7152 20.8464 89.7554 21.3513C90.2058 27.0086 89.8002 32.9864 89.7924 38.6893C89.7863 43.1378 90.215 47.9357 89.705 52.3406C94.8826 52.3126 103.613 53.3385 107.582 49.2988C107.758 49.1206 107.762 49.0059 107.822 48.7674C109.037 48.2199 109.783 46.6519 110.235 45.4622C111.731 41.5333 111.797 37.4295 111.527 33.2938C111.387 31.1571 111.232 29.0245 110.333 27.0417C108.944 23.977 107.168 22.1802 104.005 21.0023C99.6482 19.3795 93.873 20.1505 89.2586 20.0044Z" fill="#5D4FFF"/>
<path d="M0 0H36.0988H36.6424C38.3506 1.68817 40.605 2.90628 42.5472 4.31822L53.9539 12.4202L60.6007 17.1441C61.2541 17.6239 61.9986 17.9682 62.625 18.4909C68.8262 23.6656 72.5375 31.233 72.5836 39.3278C72.6085 43.7117 71.6376 47.9489 69.6032 51.8427C66.8252 57.1596 62.0553 61.5954 58.1914 66.1523C53.8315 71.294 49.6054 76.7803 44.8668 81.5691C43.9111 82.5348 42.7691 83.3683 41.5529 83.9764C40.8583 84.3236 40.0245 84.5003 39.4237 85H33.0176H0V43.9257V35.298V0ZM24.6112 23.3295C20.728 23.8274 17.1921 25.1775 14.7393 28.3604C12.4512 31.3295 12.5226 35.6985 12.991 39.2461C13.9573 46.5638 17.6874 53.5081 21.0812 59.9442C22.1403 61.9526 23.8231 65.4655 25.6233 66.8523C26.4546 67.4927 27.2144 67.8114 28.25 67.7661C29.8774 66.9772 30.6683 65.1222 31.2363 63.4931C32.5623 59.6903 32.2209 53.4223 35.125 50.5902C36.2684 50.3664 37.0375 50.3186 38.064 51.0011C39.3233 51.8384 39.7098 54.45 39.9778 55.8653C40.5731 59.0093 40.8438 65.4141 43.7146 67.3485C44.2331 67.6978 45.0197 67.9272 45.6365 67.7896C46.225 67.6583 47.0419 66.9916 47.4892 66.5846C50.0435 63.515 52.0304 59.6538 53.7731 56.0737C57.031 49.3811 60.3658 41.536 59.6742 33.9178C59.4183 31.0984 58.0832 28.1429 55.8713 26.2986C53.9512 24.6976 51.3735 23.3863 48.8 23.6276C45.6413 23.9237 42.6639 25.4702 40.0572 27.1916C36.7302 29.3888 30.9654 35.4106 26.8395 34.625C26.6253 34.1138 26.6056 33.9791 26.8191 33.4522C27.1195 32.7105 27.8741 32.073 28.4475 31.537C30.1266 29.9674 31.9871 28.5676 33.7937 27.1491C31.9143 25.2804 29.245 23.1255 26.4227 23.1216C25.8375 23.1207 25.1817 23.1923 24.6112 23.3295ZM0 43.9257V85H33.0176C32.2795 84.473 31.3037 84.2046 30.5 83.7674C29.4105 83.1747 28.378 82.2603 27.4661 81.4284C25.8218 79.9286 24.5171 78.1339 23.0985 76.4315L17.2225 69.5509L11.011 62.3352C8.47143 59.5389 5.69267 56.6267 3.73248 53.3743C2.68794 51.6412 1.73746 49.5398 1.12538 47.6078C0.747101 46.4138 0.708653 45.0539 0.0346332 43.9803L0 43.9257ZM0 0V35.298C0.529696 34.2207 0.640001 32.9271 0.968307 31.7802C1.59282 29.5984 2.65225 27.3302 3.82278 25.3982C7.2888 19.6775 12.5612 16.6565 17.8126 12.8773L36.0988 0H0Z" fill="#5D4FFF"/>
<path d="M328.5 70L329.799 73.75H327.201L328.5 70Z" fill="white"/>
</g>
<defs>
<clipPath id="clip0_392_989">
<rect width="335" height="85" fill="white"/>
</clipPath>
</defs>
</svg>
